<svg width="100" height="30" xmlns="http://www.w3.org/2000/svg"><path d="M85.737 22.535c-1.184 1.177-4.064 1.64-6.14.294-1.233-.8-2.095-2.233-2.09-3.732l-5.3-.002c.578-1.557.872-3.264.872-5.078 0-.405-.015-.805-.044-1.199.349.44.758.841 1.23 1.193 2.9 2.138 6.568 2.013 9.77 3.344.75.312 1.493.722 1.983 1.384.999 1.352.937 2.584-.281 3.796ZM52.016 14.02c0-4.45 2.706-8.76 7.581-8.76s7.58 4.31 7.58 8.76c0 11.782-15.161 11.779-15.161 0Zm-7.133-.004c-2.9-2.138-6.57-2.013-9.771-3.344-.75-.311-1.493-.722-1.982-1.384-.817-1.104-.689-2.831.28-3.796 1.18-1.173 4.06-1.642 6.141-.293 1.232.798 2.094 2.232 2.09 3.73l5.343.004c-.575 1.554-.869 3.263-.869 5.084 0 .425.017.843.05 1.255a6.628 6.628 0 0 0-1.282-1.256Zm-4.486 8.525c-1.183 1.176-4.063 1.64-6.14.293-1.232-.799-2.094-2.232-2.09-3.731l-5.45-.003v-7.96a6.686 6.686 0 0 0 2.209 2.876c2.9 2.139 6.568 2.013 9.77 3.345.75.311 1.493.722 1.982 1.383.817 1.105.69 2.832-.28 3.797Zm-34.51-8.504c0-4.45 2.706-8.76 7.581-8.76s7.581 4.31 7.581 8.76c0 11.782-15.162 11.779-15.162 0Zm84.335-.026c-2.9-2.138-6.57-2.013-9.771-3.344-.75-.312-1.493-.722-1.982-1.384-.816-1.105-.689-2.832.281-3.796 1.18-1.173 4.06-1.642 6.14-.294 1.232.799 2.094 2.233 2.09 3.731l5.963.003c-.098-2.634-1.403-5.194-3.455-6.772-2.499-1.922-5.822-2.31-8.932-2.06-1.915.156-3.856.543-5.517 1.538-2.067 1.24-3.272 3.476-3.498 5.798-.727-1.386-1.714-2.66-2.946-3.804-2.698-2.474-5.679-3.609-8.96-3.626V0h-.076c-3.281.018-6.262 1.153-8.96 3.627-1.332 1.237-2.377 2.625-3.117 4.142-.38-2.208-1.586-4.264-3.334-5.609C41.65.24 38.327-.15 35.218.101 33.301.256 31.36.643 29.7 1.64c-1.405.842-2.412 2.145-2.983 3.623V.72h-5.668v1.767C18.734.814 16.223.032 13.506.017h-.076C10.149.036 7.168 1.17 4.47 3.645c-1.486 1.38-2.616 2.948-3.363 4.674-.74 1.718-1.12 3.645-1.12 5.716 0 1.934.334 3.747.99 5.386.658 1.639 1.659 3.156 2.977 4.507 1.318 1.352 2.791 2.382 4.378 3.056 1.552.66 3.263 1.002 5.079 1.016V28h.114v-.001c1.816-.014 3.527-.356 5.08-1.016.849-.361 1.666-.825 2.444-1.385v1.698h5.668v-5.537c.573 1.623 1.598 3.079 2.943 4.113 2.498 1.922 5.822 2.311 8.931 2.06 1.916-.155 3.857-.542 5.517-1.538 2.075-1.244 3.296-3.523 3.506-5.883a14.137 14.137 0 0 0 2.47 3.399c1.317 1.352 2.79 2.381 4.377 3.056 1.553.66 3.263 1.002 5.079 1.016v.001h.115v-.001c1.815-.014 3.526-.356 5.078-1.016 1.587-.675 3.06-1.704 4.378-3.056a14.09 14.09 0 0 0 2.565-3.588c.392 2.184 1.592 4.214 3.323 5.545 2.499 1.922 5.822 2.31 8.931 2.06 2.416-.196 3.79-.503 5.517-1.538 4.208-2.523 4.907-9.304.775-12.378Z" fill="#0E0F0F" fill-rule="evenodd"/></svg>